<?xml version="1.0" encoding="utf-8"?>
<!-- Generator: Adobe Illustrator 23.0.6, SVG Export Plug-In . SVG Version: 6.00 Build 0)  -->
<svg version="1.1" id="Layer_1" xmlns="http://www.w3.org/2000/svg" xmlns:xlink="http://www.w3.org/1999/xlink" x="0px" y="0px"
	 viewBox="0 0 927 390" style="enable-background:new 0 0 927 390;" xml:space="preserve">
<style type="text/css">
	.st0{fill:#1874CD;}
	.st1{fill:#FFFFFF;}
</style>
<g>
	<path class="st0" d="M112.1,53c0,0-2.2,1.5-3,1.6s-1.2,0.9-1.2,0.9l-2.3,0.6c0,0-3.8,1.9-4,1.9s0.5-0.8,0.5-1.2s0.8-1.3,0.8-1.3
		l3.9-2.4c0,0,1.7-0.5,1.9-0.6C108.9,52.3,111.8,53,112.1,53z"/>
	<path class="st0" d="M166.3,32.3c1.6,0.1-0.4,1.3-0.4,1.3s-2.2,0.6-2.5,0.6c-0.2,0-1.8,1.8-1.8,1.8s-2,0.3-2.2,0.3
		s-1.8-0.6-1.9-0.6c-0.2,0-0.5,1.2-0.5,1.2h-2.7c0,0,1.5-2.6,1.7-2.7s1.2-0.5,1.5-1.1c0.3-0.5,3-0.7,4.1-0.9
		C162.6,32.1,166.3,32.3,166.3,32.3z"/>
	<path class="st0" d="M109.7,49.4c-2.7,1.9-15.7,10-16.3,9.7c0,0,8.8-10.2,36.4-21.8c28.7-12.1,40.1-11.2,40.1-11.2l-0.6,1
		c0,0-8.2,1.8-9.5,2.9s-16,5.2-20.4,7c-4.3,1.8-18,8.5-21.1,9.6C115.1,47.9,112.4,47.5,109.7,49.4z"/>
	<path class="st0" d="M179.8,41.5c0.1-0.2,0.8-3.1,3.2-4.2c2.4-1.1,3.8-2.7,4.8-2.9c1.1-0.2,4.3-2.1,5.5-1.3
		c1.2,0.8-0.4,1.3-0.4,1.3s-6.7,3-6.9,3.5s-2.5,2.6-1.5,3.3c1.1,0.6,3.3,1.2,2.1,1.8s-1,1.4-3.5,0.5
		C180.6,42.6,179.7,41.7,179.8,41.5z"/>
	<path class="st0" d="M203.1,325.6c0,0.8-2.8,9-3.2,9c-0.3,0-2,10.6-2,10.6l-3.2,3.6c0,0-2.1,0.1-10.3-2.3c-8.2-2.5-0.3-1.3-2-3
		s-0.8-1.5-0.7-3.1c0.1-1.5,0.8-4.2,0.9-5.3c0.1-1.1-0.9-4.7-0.9-5.6s3-2.1,3-2.1s4.9-1.3,5-2s6.6-7.8,7.3-8.8h0.7
		C202.5,314.5,203.1,324.8,203.1,325.6z"/>
	<path class="st0" d="M200.8,27.2c0.3,0,4.9,0,4.9,0s3.8,1.2,0.6,1.9c0,0-3.9-0.3-4.7-0.5C200.8,28.3,200.5,27.2,200.8,27.2z"/>
	<path class="st0" d="M306.8,227.2c0,0.3,1.2,2-1,5.6s-1.4,2.3-3,0.5s-1.3-11.6-1.3-11.6v-0.4C303.1,221.3,306.8,226.9,306.8,227.2z
		"/>
	<path class="st0" d="M334.8,199.2c0.8,2-1.5,3.5-1.6,2.6s-1.2-8-0.9-8.2C332.3,193.6,334,197.1,334.8,199.2z"/>
	<path class="st0" d="M357.3,135.5c-1.9-2.6-3.2-10-3.2-10c0.4-1.3,2.5,2.9,5.2,8.1C362,138.8,359.2,138.1,357.3,135.5z"/>
	<path class="st0" d="M82.5,119.5c-0.2,0.2-1.2,1.2-1.4,1.2c-0.2,0-0.6,1.6-0.6,1.6l-0.1,1.4c0,0-1.7,4-1.8,4.2
		c-0.1,0.2,0.1,1.7,0.1,1.7s-1.4,0.1-2.3-2.3c-0.9-2.4,0.8-2.2,0.9-2.5c0.2-0.3,1.2-1.8,1.7-2s1-2,1-2s1-1.5,1.1-2.1
		s1.4-0.9,1.4-0.9C84,116.4,82.8,119.2,82.5,119.5z"/>
	<path class="st0" d="M99,69.6c0,0-1.2,0.9-3,0.9S92.6,76,92.6,76l-3,1c0,0-0.4-0.2-0.6-0.4s-1.9,1.2-2.2,1.2S85,79.1,85,79.1
		s-1.8,2.8-2.7,3.2s-2.7,3.2-2.7,3.2h2.8l1.2,1.6c0,0-0.8,1.6-1.5,1.7c-0.7,0.1-2,1.6-2,1.6s4.1-0.3,6.4-0.6c0.1,0,0.2,0,0.3,0l0,0
		l2-1.5c0.6-0.5,1-0.9,1-0.9l1.6-1.2l0.8-1l0.5-0.6c0,0-0.2-1-0.2-2s0.4-0.9,0.5-1.2s0.6-1.1,1.2-2.3s0.8-1.6,0.9-2.2
		c0.2-0.6,1.1-1.3,1.8-2.3c0.7-1,2.7-2.2,3-2.8C100.5,71.3,99,69.6,99,69.6z M355.5,154.1c0-0.6-0.1-1-0.1-1s-2.6,1.5-2.9,4
		s2.5,3.1,2.9,1.6C355.7,157.7,355.6,155.4,355.5,154.1z M164.9,48.8c-0.4-0.1-1.2,0-1.5,0c-0.2,0-3.8-0.8-4-0.9
		c-0.2-0.1-0.9-0.6-1.9-1.7c-0.9-1-5.2-1.2-5.8-1.3s-3.8,1.3-4.6,1.5c-0.9,0.2-5,1.2-5.9,1.2s-4.1,2.6-5.1,2.7s-3,1.9-3.4,1.9
		c-0.3,0-1.9,3.4-2.2,3.4s-4.1,2.3-4.3,2.4c-0.2,0.1-3.3,1.6-3.7,1.7s-2.9,0.5-3.2,0.5s-6.1,2.8-6.9,2.8c-0.8,0-5.1,7.3-5.4,7.5
		s0.7,1.2,0.7,1.2s1,0,1.9-0.3s4.4-0.9,4.4-0.9s-1,2.6-1.3,3.1c-0.1,0.2-0.1,0.6-0.1,1.1c4.1-2.5,25.9-15.5,40-19.8l2-2.6
		c0.5,0.7,1,1.2,1.5,1.7l0.1,0.1c0.1-0.1,0.2-0.1,0.2-0.2c0.9-0.7,2.2-1.6,2.2-1.6s3.9,0.3,5,0.3s1.3-1.1,1.3-1.1l1.4-2.1
		C166.6,49.6,165.3,48.9,164.9,48.8z"/>
	<path class="st0" d="M369.7,170.6c2,0.9,1.4,9.7,0.6,12.1c-0.9,2.4-0.9-2.3-0.9-4.1C369.3,177,369.7,170.6,369.7,170.6z"/>
	<path class="st0" d="M373.6,231.8c0,0.2-2,4.7-2,4.7l-2.4,4.9c0,0-2.6,2-2.8,2.1c-0.2,0.1-4,0.9-4,0.9v-1.8c0,0-2.4-1.1-2.7-1.2
		c-0.3-0.2-2.6-3.4-3-3.8c-0.5-0.4-0.7-2.1-1.1-2.7s-0.7-1.7-1-2.6s-1.7-2.7-1.7-2.7l-1-1.9c0,0-1.2-1.4-1.5-2
		c-0.3-0.5-1.4-1.2-2.8-2.4c-1.4-1.2-2.9-1.5-3.8-4.2c-0.9-2.6,1.5-1.1,1.8-1.2s2-1.1,2.3-1.2c0.1-0.1,0.5,0.3,0.9,0.7
		c0.4,0.4,0.7,0.8,1,1.1c0.3,0.4,0.5,0.6,0.5,0.6s0.3-0.5,1.1,0.5c0.8,1,2.3,1.5,2.6,1.7c0.3,0.2,1.6,1,2.7,1.4
		c1,0.4,1.8,0.9,1.8,0.9c0,0.1,1.1,0,1.4,0.2s1.1,0.6,1.1,0.6l-0.2,1.3c0,0,0,1.3,0,1.9c0,0.5,1.4,1.6,1.6,2
		c0.2,0.3,0.5,0.2,0.5,0.2s0.5-1.5,0.9-1.8s0.9,0.1,0.9,0.1l0.5,2.4l-1.9,1c0,0-0.1,2.2-0.3,2.2s0,3.5-0.1,3.9s1.1,2.3,1.1,2.3
		s0.9-0.2,2.4-1.1c1.5-0.8,3.1-3.4,3.3-3.9C369.9,234.3,373.6,231.6,373.6,231.8z"/>
	<path class="st0" d="M373.8,200.1l1,6.5l-0.9,7.8c0,0-0.6,4.4-1.7,6.4s-1.9,4.9-4,5.6c-2.1,0.6-0.3-1.6-0.7-3
		c-0.4-1.4-0.8-3.7-1.2-4.7c-0.4-1,0-3.4-0.4-4.1s-0.5-2.1-0.5-2.1s1.9-0.1,2.1-0.4s0.1-1.7,0.5-3.5s-0.5-2-0.5-2.2s0.6-2.1,1.5-5.3
		c0.8-2.9,0.5-2.3,0.4-2.2c0.1-0.4,1.3-4.3,1.4-5.4s0-6.8,0-6.8l-0.1-0.4c0.9-3.7,1.3,3,1.3,3L373.8,200.1z"/>
	<path class="st0" d="M365,152.4c-1.8-3.5-1.1-6.7-1.1-6.7c0.1-0.7,4.1,8.8,5.8,12c1.7,3.2,4.9,13.5,5.2,20.3
		c0.3,6.8-1.8,5.4-1.8,5.4s0.1-1.8,0-3.8s-1.2-10.9-2.1-12c-1-1.1-1.8-4.2-2.5-5.3C367.8,161.4,366.8,156,365,152.4z"/>
	<g>
		<path class="st1" d="M192.9,34.4c0,0-6.7,3-6.9,3.5s-2.5,2.6-1.5,3.3c1.1,0.6,3.3,1.2,2.1,1.8s-1,1.4-3.5,0.5s-3.5-1.9-3.4-2.1
			s0.8-3.1,3.2-4.2c2.4-1.1,3.8-2.7,4.8-2.9c1.1-0.2,4.3-2.1,5.5-1.3C194.5,33.9,192.9,34.4,192.9,34.4z"/>
		<path class="st1" d="M206.3,29.1c0,0-3.9-0.3-4.7-0.5s-1.1-1.4-0.8-1.4s4.9,0,4.9,0S209.5,28.4,206.3,29.1z"/>
		<path class="st1" d="M169.9,26.2l-0.6,1c0,0-8.2,1.8-9.5,2.9s-16,5.2-20.4,7c-4.3,1.8-18,8.5-21.1,9.6c-3.2,1.2-5.9,0.8-8.6,2.7
			c-2.7,1.9-15.7,10-16.3,9.7c0,0,8.8-10.2,36.4-21.8C158.5,25.2,169.9,26.2,169.9,26.2z"/>
		<path class="st1" d="M112.1,53c0,0-2.2,1.5-3,1.6s-1.2,0.9-1.2,0.9l-2.3,0.6c0,0-3.8,1.9-4,1.9s0.5-0.8,0.5-1.2s0.8-1.3,0.8-1.3
			l3.9-2.4c0,0,1.7-0.5,1.9-0.6C108.9,52.3,111.8,53,112.1,53z"/>
		<path class="st1" d="M165.8,33.6c0,0-2.2,0.6-2.5,0.6c-0.2,0-1.8,1.8-1.8,1.8s-2,0.3-2.2,0.3s-1.8-0.6-1.9-0.6
			c-0.2,0-0.5,1.2-0.5,1.2h-2.7c0,0,1.5-2.6,1.7-2.7s1.2-0.5,1.5-1.1c0.3-0.5,3-0.7,4.1-0.9c1.1-0.2,4.7,0,4.7,0
			C167.8,32.4,165.8,33.6,165.8,33.6z"/>
		<path class="st1" d="M203.1,325.6c0,0.8-2.8,9-3.2,9c-0.3,0-2,10.6-2,10.6l-3.2,3.6c0,0-2.1,0.1-10.3-2.3c-8.2-2.5-0.3-1.3-2-3
			s-0.8-1.5-0.7-3.1c0.1-1.5,0.8-4.2,0.9-5.3c0.1-1.1-0.9-4.7-0.9-5.6s3-2.1,3-2.1s4.9-1.3,5-2s6.6-7.8,7.3-8.8h0.7
			C202.5,314.5,203.1,324.8,203.1,325.6z"/>
		<path class="st1" d="M305.8,232.7c-2.2,3.6-1.4,2.3-3,0.5s-1.3-11.6-1.3-11.6v-0.4c1.5,0,5.3,5.6,5.3,5.9S308,229.1,305.8,232.7z"
			/>
		<path class="st1" d="M333.2,201.8c-0.1-0.9-1.2-8-0.9-8.2c0,0,1.7,3.6,2.5,5.6S333.3,202.7,333.2,201.8z"/>
		<path class="st1" d="M373.6,231.8c0,0.2-2,4.7-2,4.7l-2.4,4.9c0,0-2.6,2-2.8,2.1c-0.2,0.1-4,0.9-4,0.9v-1.8c0,0-2.4-1.1-2.7-1.2
			c-0.3-0.2-2.6-3.4-3-3.8c-0.5-0.4-0.7-2.1-1.1-2.7s-0.7-1.7-1-2.6s-1.7-2.7-1.7-2.7l-1-1.9c0,0-1.2-1.4-1.5-2
			c-0.3-0.5-1.4-1.2-2.8-2.4c-1.4-1.2-2.9-1.5-3.8-4.2c-0.9-2.6,1.5-1.1,1.8-1.2s2-1.1,2.3-1.2c0.1-0.1,0.5,0.3,0.9,0.7
			c0.4,0.4,0.7,0.8,1,1.1c0.3,0.4,0.5,0.6,0.5,0.6s0.3-0.5,1.1,0.5c0.8,1,2.3,1.5,2.6,1.7c0.3,0.2,1.6,1,2.7,1.4
			c1,0.4,1.8,0.9,1.8,0.9c0,0.1,1.1,0,1.4,0.2s1.1,0.6,1.1,0.6l-0.2,1.3c0,0,0,1.3,0,1.9c0,0.5,1.4,1.6,1.6,2
			c0.2,0.3,0.5,0.2,0.5,0.2s0.5-1.5,0.9-1.8s0.9,0.1,0.9,0.1l0.5,2.4l-1.9,1c0,0-0.1,2.2-0.3,2.2s0,3.5-0.1,3.9s1.1,2.3,1.1,2.3
			s0.9-0.2,2.4-1.1c1.5-0.8,3.1-3.4,3.3-3.9C369.9,234.3,373.6,231.6,373.6,231.8z"/>
		<path class="st1" d="M374.8,206.7l-0.9,7.8c0,0-0.6,4.4-1.7,6.4s-1.9,4.9-4,5.6c-2.1,0.6-0.3-1.6-0.7-3c-0.4-1.4-0.8-3.7-1.2-4.7
			c-0.4-1,0-3.4-0.4-4.1s-0.5-2.1-0.5-2.1s1.9-0.1,2.1-0.4s0.1-1.7,0.5-3.5s-0.5-2-0.5-2.2s0.6-2.1,1.5-5.3c0.8-2.9,0.5-2.3,0.4-2.2
			c0.1-0.4,1.3-4.3,1.4-5.4s0-6.8,0-6.8l-0.1-0.4c0.9-3.7,1.3,3,1.3,3l1.6,10.7L374.8,206.7z"/>
		<path class="st1" d="M370.2,182.8c-0.9,2.4-0.9-2.3-0.9-4.1c0-1.7,0.4-8.1,0.4-8.1C371.7,171.6,371.1,180.3,370.2,182.8z"/>
		<path class="st1" d="M355.4,158.7c-0.4,1.5-3.2,0.9-2.9-1.6c0.3-2.5,2.9-4,2.9-4s0,0.4,0.1,1C355.6,155.4,355.7,157.7,355.4,158.7
			z"/>
		<path class="st1" d="M373.1,183.4c0,0,0.1-1.8,0-3.8s-1.2-10.9-2.1-12c-1-1.1-1.8-4.2-2.5-5.3s-1.8-6.5-3.6-10
			c-1.8-3.5-1.1-6.7-1.1-6.7c0.1-0.7,4.1,8.8,5.8,12c1.7,3.2,4.9,13.5,5.2,20.3C375.2,184.8,373.1,183.4,373.1,183.4z"/>
		<path class="st1" d="M357.3,135.5c-1.9-2.6-3.2-10-3.2-10c0.4-1.3,2.5,2.9,5.2,8.1C362,138.8,359.2,138.1,357.3,135.5z"/>
		<path class="st1" d="M82.5,119.5c-0.2,0.2-1.2,1.2-1.4,1.2c-0.2,0-0.6,1.6-0.6,1.6l-0.1,1.4c0,0-1.7,4-1.8,4.2
			c-0.1,0.2,0.1,1.7,0.1,1.7s-1.4,0.1-2.3-2.3c-0.9-2.4,0.8-2.2,0.9-2.5c0.2-0.3,1.2-1.8,1.7-2s1-2,1-2s1-1.5,1.1-2.1
			s1.4-0.9,1.4-0.9C84,116.4,82.8,119.2,82.5,119.5z"/>
	</g>
	<g>
		<path class="st1" d="M100.1,72c-0.4,0.6-2.4,1.8-3,2.8c-0.7,1-1.7,1.7-1.8,2.3c-0.2,0.6-0.3,1-0.9,2.2s-1.2,2-1.2,2.3
			c-0.1,0.3-0.5,0.2-0.5,1.2s0.2,2,0.2,2l-0.5,0.6l-0.8,1L90,87.6c0,0-0.4,0.4-1,0.9L87,90l0,0c-0.1,0-0.2,0-0.3,0
			c-2.3,0.3-6.4,0.6-6.4,0.6s1.2-1.5,2-1.6c0.7-0.1,1.5-1.7,1.5-1.7l-1.2-1.6h-2.8c0,0,1.8-2.8,2.7-3.2s2.7-3.2,2.7-3.2
			S86.7,78,87,78s2-1.4,2.2-1.2s0.6,0.4,0.6,0.4l3-1c0,0,1.6-5.5,3.4-5.5s3-0.9,3-0.9S100.5,71.3,100.1,72z"/>
		<path class="st1" d="M164.9,48.8c-0.4-0.1-1.2,0-1.5,0c-0.2,0-3.8-0.8-4-0.9c-0.2-0.1-0.9-0.6-1.9-1.7c-0.9-1-5.2-1.2-5.8-1.3
			s-3.8,1.3-4.6,1.5c-0.9,0.2-5,1.2-5.9,1.2s-4.1,2.6-5.1,2.7s-3,1.9-3.4,1.9c-0.3,0-1.9,3.4-2.2,3.4s-4.1,2.3-4.3,2.4
			c-0.2,0.1-3.3,1.6-3.7,1.7s-2.9,0.5-3.2,0.5s-6.1,2.8-6.9,2.8c-0.8,0-5.1,7.3-5.4,7.5s0.7,1.2,0.7,1.2s1,0,1.9-0.3
			s4.4-0.9,4.4-0.9s-1,2.6-1.3,3.1c-0.1,0.2-0.1,0.6-0.1,1.1c4.1-2.5,25.9-15.5,40-19.8l2-2.6c0.5,0.7,1,1.2,1.5,1.7l0.1,0.1
			c0.1-0.1,0.2-0.1,0.2-0.2c0.9-0.7,2.2-1.6,2.2-1.6s3.9,0.3,5,0.3s1.3-1.1,1.3-1.1l1.4-2.1C166.6,49.6,165.3,48.9,164.9,48.8z
			 M29.8,165.9c-0.1,0.2-0.2,0.7-0.4,1.5c0.2-0.6,0.4-1.1,0.5-1.3l0.6,3.8c0.3-2,0.6-4,0.9-6C30.4,165.1,29.8,165.9,29.8,165.9z
			 M91.7,85.6c0,0-2.6,2.5-4.8,4.4l0,0l2-1.5c0.6-0.5,1-0.9,1-0.9l1.6-1.2l0.8-1L91.7,85.6z M355.4,153.1c0,0-2.6,1.5-2.9,4l0.2,0.6
			c0,0,2-2.4,2.8-3.6C355.5,153.5,355.4,153.1,355.4,153.1z"/>
	</g>
</g>
<path class="st1" d="M101.2,155.1c-0.9-1.1-4.4-1.5-4.6-1.6s-0.8,1.1-2.5,1.6c-0.7,0.2-1,0.8-1.1,1.3
	C95.7,155.8,98.5,155.4,101.2,155.1L101.2,155.1z M125.7,159.6c0,0-0.2,0-0.4,0c0.4,0.2,0.8,0.4,1.2,0.6
	C126.3,159.9,125.7,159.6,125.7,159.6z M182.6,134.1c-0.9-1.2-1.1,0-1.1,0s0,0-2.6-1.2s-0.3-0.4-0.7-1.2s0.5-2.1,1.2-3.4
	c0.7-1.3,0.9-3,1.4-3.2s0.2-1.2,0.1-2c-0.2-0.7-0.2,0-0.2,0s-2.7-2.1-3.6-3c-0.9-0.9-1-0.9-4.2-6.2c-0.3-0.5-0.6-0.9-0.8-1.3
	c-13.6,18.2-22.4,40.1-26.5,51.9c6.9-6.3,18.4-16,32.7-25c2-1.2,4-2.5,6.2-3.8C183.5,135.5,183.4,135.2,182.6,134.1z M101.2,155.1
	c-0.9-1.1-4.4-1.5-4.6-1.6s-0.8,1.1-2.5,1.6c-0.7,0.2-1,0.8-1.1,1.3C95.7,155.8,98.5,155.4,101.2,155.1L101.2,155.1z M208.3,161.3
	c-4.5-0.7-9.2-1-13.7-1c-24,0-42.6,9.5-49.9,13.9c0,0.2,0,0.3,0,0.5c0,2.5-2,4.5-4.4,4.5c-2.5,0-4.4-2-4.4-4.5c0-0.3,0-0.5,0.1-0.8
	c-5.7-5.9-12.2-9.9-19.2-12l0,0c-1.4-0.3-4-0.8-5.9-1.2c-1.8-0.3-3.7-0.4-5.7-0.4h-0.7c-4.5,0.1-9,0.8-13.6,2.1l0,0
	c-0.3,0.2-0.5,0.4-0.5,0.4s-0.2-0.1-0.4-0.2c-21.5,6.3-42.5,24-55.2,36.4c5.1-2.3,11.1-4,17.7-4c3.4,0,6.9,0.5,10.2,1.4
	c14.6,4,28.1,16.7,39.9,37.7c14.4,25.3,26.6,63.1,36.4,112.3c1.2,0.8,2,2.2,2,3.7c0,2.5-2,4.4-4.5,4.4c-2.4,0-4.4-2-4.4-4.4
	c0-1.4,0.7-2.6,1.7-3.5c-21.9-109.4-51.4-139.4-72.4-145.2c-2.9-0.8-5.9-1.2-8.9-1.2c-12.9,0-23.4,7.5-28.2,11.7l0,0
	c0,2.5-2,4.5-4.5,4.5c-1.1,0-2.1-0.4-2.8-1c0.2,3.6,0.6,7.5,1,10.2c0,0.1,0.1,0.3,0.1,0.5c-0.1,0-0.1,0-0.1,0
	c0.3,0.9,3,21.1,10.9,27.6c0.5,0.4,3.3-0.1,5.9-0.6c2.3-0.5,4.4-1,4.9-0.9s2.3-1,4.2-1.8c2.2-1,4.7-1.7,5.7-0.2
	c1.8,2.8,4.2,1.5,7.4,2.8c3.2,1.2,3.3,1.4,2.3,5s-1.1,2.8,0.5,7.4s3.5,3.3,4.7,9s4.5,5.2,2,10.2s-3.9,7.4-1.2,12.1
	c2.7,4.6-0.3,9.3,3.3,12.7c22.9,21.8,38.1,28.9,38.7,29.2l0,0l0,0c9.3,7.2,22,16.6,26.8,18.2c8,2.8,20.7-4.7,20.7-4.7v-2.3l2.8-6.1
	v-9.4l11.3-6.1l-1.9-14.5c0,0-3.5-6.3-3.5-7s-7.7-10.6-7.7-10.6l4.7-7.5l16.9-16c0,0,16.2-18.1,17.4-21.6s2.6-17.6,2.6-17.6
	l-1.7,0.8c-6.8,8.5-11.3,16.7-13.6,21.1c0.5,0.7,0.7,1.5,0.7,2.5c0,2.5-2,4.5-4.4,4.5c-2.5,0-4.5-2-4.5-4.5c0-2,1.4-3.7,3.2-4.2
	c1.6-3.2,4.6-8.6,8.8-14.8l-2.2,1H169l-8.7-6.1l-3.5-5.9l-4.7-4.5l-8.5-12l-2.1-3.8l-4.5-17.8l-6.6-10.3l-0.9-3.8l3.3-1.7l12.9,14.8
	l3.5,12.7l8.5,7.8l0.9,10.1l10.3,14.8l10.3-5.6l13.1-6.6l4.7-2.3l6.3-7.5l6.8-1.9l8.9-11.5l1.4-6.6l-1.4-7.5l-7-1.2l-5.4-5.6
	l-2.1,2.1l-3.3,3.3l-6.6,0.9l-4.7-4l-0.7-2.3l-6.6-2.6l-4.7-7.7l5.4-4.7l9.8,6.8c0,0,8,4,11.7,4c3.8,0,8.9-1.9,8.9-1.9
	s-0.7,3.3-0.7,4s11.5,1.6,11.5,1.6l13.6-3.8l4.2,0.3C231.5,167.2,220.1,163.1,208.3,161.3z M256.5,182.8v1.5c0,0.7,4.9,2.6,4.9,2.6
	h0.1C259.9,185.4,258.2,184.1,256.5,182.8z M272.9,197.3c0.3,1,0.6,2.1,1.5,5c0.4,1.2,0.6,2,0.7,2.5c2.8,1.2,5.6,2.7,8.4,4.3
	C280,204.9,276.5,201,272.9,197.3z M294.3,225.8c-2.5,0-4.5-2-4.5-4.5c0-0.6,0.1-1.1,0.3-1.6c-3.8-2.7-7.6-5.1-11.3-7.1
	c1.7,2.9,3.5,6.2,3.9,7.1c0.7,1.6,5.2,10.1,5.2,10.1l7.8,0.2l1.7-5.5C296.6,225.3,295.5,225.8,294.3,225.8z M297.9,218.6
	c0.4,0.5,0.7,1.2,0.8,1.9l2.4-6.6C299.7,215.8,298.6,217.5,297.9,218.6z M267,122.7c-5.5-1.2-11.3-1.8-17.2-1.8
	c-39.2,0-76.2,26.4-95,42.3c10-4.2,23.7-8.2,39.8-8.2c4.8,0,9.7,0.4,14.5,1.1c21.2,3.2,41.2,13.4,60,30.3l1.1-0.6c0,0,0,0.7,0.1,1.7
	c8.3,7.6,16.3,16.6,24.1,26.9c1.6-2.4,4-5.8,7-9.1v-3.8l-2.1-3.3l8.2-13.6l2.6-9.2l2.8-4.2l5.9-6.3l7,3.5l4.1,4.5
	c-0.6-0.6-2.5-2.4,0.1,2.5c3,5.6,3,5.6,3,5.6l2.6,2.1l1.4-1.4C317.7,148.4,294.3,128.5,267,122.7z M344.6,196.5l0.7,3.7
	c0.7,0.7,1.4,1.4,2,2.1C346.5,200.3,345.6,198.4,344.6,196.5z M355.3,207.2l-0.1-0.1c1.3,3.1,2.6,6.2,3.9,9.5v-4.9L355.3,207.2z
	 M359,170.2l-4.9-5.2l-2.3-3.5c0,0-0.9-1.4-1.4-2.8c-0.5-1.4-1.4-7.3-1.4-7.3h1.9l1.7,5.7c0.3-2.5,2.9-4,2.9-4s0,0.4,0.1,1
	c0.2-0.3,0.3-0.5,0.3-0.6c0-0.7-1.2-4.7-1.2-4.7l0.5-7.5c0,0-5.6-27-7.3-29.8c-1.6-2.8-16-14.6-16-14.6l-1.2-4.2l-6.3-2.3l2.3-3h2.3
	l10.8,7l4.5,8l-4.9-10.3l-15.6-17.6c-3.9-6.2-42.1-30.4-51.8-35.6c-8.8-4.6-21.4-8-27.7-9.5l0,0l-0.9-0.2c-1.9-0.5-3.1-0.7-3.1-0.7
	l-13.2-3v0.6l5.1,1.3c0,0,0,0.7,0,1.1l0.3,1.5c-0.8-0.6-4.7,1-5.6,1c-0.9,0-7.4-2.2-7.8-2.2c-0.3,0-5.4-1.4-5.8,0
	c-0.2,0.9,0.3,1.4,0.8,1.7c-0.6,0.2-1.2,0.4-1.4,0.4h-0.5c0,0,0,0,0.1,0c-0.2,0-0.4,0.1-0.5,0.1c-0.2,0-1.2,1.6-1.2,1.8
	c-0.1,0.2,0.6,1.3,0.6,1.3l-1.8,1.1c0-0.1,0.2-0.5,0-0.3s-0.5-0.1-0.8,0s-1.2,1.2-1.6,1.8c-0.4,0.6-0.2,1.7-0.4,1.8
	c-0.2,0.1-0.5-1-0.7-1.2c-0.1-0.2-3.3-0.8-3.7-0.5c-0.2,0.2-0.1,0.4-0.2,0.5l-1.1-0.7l0.2,0.6c-0.1,0-0.2-0.1-0.3-0.1
	c-1.8-0.6-0.8-0.2-1.2,0c-0.5,0.2-1.2,0-1.2,0s-1.1,2.7-1.1,3s0.5,0.9,0.8,2.2s2.4,1.8,2.4,1.8s-1.4,0.2-1.9,0s-2-0.5-3.6-1.2
	s-2,0.1-4.5,0c-2.5,0-1.4,0.5-1.4,0.5l3.3,1.5c0,0-0.1,0.3-0.4,0.8h-9l-10.1,4.7h-4.7l-5.6,5.4c0,0-2.2,0.8-4.6-0.4l-2.3,1.1
	c0,0.2,0,0.4,0.1,0.6l-1.6,0.1l-41.3,20c0,0.1,0,0.1,0,0.2c0,0.3-2.3,0.2-2.9,0.2c-0.6,0-1.1,0-1.1-0.9s0.1-0.4,0.2-0.9
	c0.1-0.4,0.5-1.4,0.5-1.6c-0.2,0-2.7,0.6-3,0.6s-0.5,0-1.2-0.2c-0.6-0.1-0.7,2.1-0.7,2.1s-0.6,1.7-1,2.3c-0.4,0.5-0.6,2.6-0.9,3.5
	s-1.7,1.1-2,1.1c-0.2,0-2.2,1.2-3.6,1.2s-2.8-0.2-2.8-0.2l-2.3,0.8l-0.8,1l-1.6,1.2c0,0-0.4,0.4-1,0.9l-2,1.5l0,0
	c-0.3,0.3-0.6,0.5-0.9,0.7c-0.3,0.6-0.8,1.2-1.5,1.5c-0.8,0.8-1.9,1.8-2.9,2.1c-1.5,0.4-1.4-1.5-1.6-1.9s-0.6,2.2-1.2,3
	c-0.7,0.9-1.3,0.5-2.6-0.1s-2.1,1.3-2,4.9c0.1,3.6-3.6,9.5-5.3,10c-1.7,0.5-3.4,0.1-5.7-1.4c-2.3-1.5-3,2.7-3.4,3.1
	c-0.5,0.4-1.6,3.9-3.2,5.7s-4.7,9.5-5.2,11.1s0.9,1,1.2,2.6c0.3,1.6-0.7,3.7-0.7,3.7s-3.6,4.8-5.6,6s-3.5,4.5-5.2,8.7
	c-1.2,3.1-6.7,10.4-9.5,14c-0.3,2-0.7,4-0.9,6l-0.6-3.8c-0.1,0.2-0.2,0.7-0.5,1.3c-0.9,2.4-3.1,7.2-6.7,9.1c-1,0.5-2.7,2.6-2.2,6.5
	c0.6,4.2,0.2,6.4-0.3,6.9c-3.1,3.2-3.1,8.9-3.1,8.9s-0.2,6-0.4,9.3c0,0.2,0,0.3,0,0.5c0.7-0.7,1.7-1.1,2.7-1.2
	c7.6-8.6,35.4-38.4,65.7-48.8c-1-0.5-2.2-0.9-2.7-1.2c-0.7-0.4,0.1-2.3,0-2.5s0.1-0.6,0-0.8s-0.6-0.7-3.1-2.2s-1.6-0.5-3.5-1.3
	s-2.1-2.3-2.3-3.6c-0.2-1.2,2.3-2.9,2.3-3.9c0.1-1,0.4-3.7,0.6-4s0.5-1.7,0.2-2.6c-0.3-0.9-1.3-0.6-1.5-0.6s-1.7-0.1-2.9-0.2
	c-1.2-0.1-1.2,0-3-0.5s-2.6-0.6-3.4-0.8c-0.8-0.1-2.8,0.1-3.4,0.2c-0.6,0.1-5.3,2.8-5.5,3.2s-1.5,0.9-3.3-1.3
	c-1.9-2.3,1.8-4.2,1.8-4.2s2.6,0.3,3.2,0s0,0,0.5-0.6s0.9-1.1,1.8-2s0.8-0.5,1.3-1s1.2-1.1,1.2-1.1s0.4-1.6,1.2-3.1
	c0.9-1.5,0.5-0.9,0.9-1.5c0.5-0.6,1.4-1.5,2.1-2.1s2-1.6,2.7-2c0.7-0.5,2.4-1.2,2.5-1.5c0.2-0.2,0.5-1.4,1.5-2.7s1.1-0.5,2.5-0.6
	s1.7,1.2,1.7,1.2s2.3-1.5,2.7-1.7c0.4-0.2,2.1-0.8,2.8-1.2c0.7-0.4,0.9,0.2,0.9,0.2l1,1.2c0,0-0.2,1-0.2,1.2s1.1,3.3,1.1,3.5
	s1.3,2.6,1.4,2.8s0.7,1.6,1.6,3.9c0.9,2.2,0.9,1.5,0.9,1.8v2.6c0,0.7-0.1,1.4-0.1,1.4l-3.7,1.5c0,0-2.5,0.6-2.7,0.6
	s-0.5-0.2-0.8-0.2c-0.2,0-0.8,0.5-1.2,1.2c-0.4,0.7,0.2,0.9,0.5,1.4s1.6,2.6,2.1,3s1.3,0.1,1.9-0.1c0.5-0.1,0.6-1.1,0.8-2.3l1.9-1.8
	c0,0,1.3-0.9,2.3-1.3c0.9-0.4,0.4-0.2,0.5-0.3c0.2-0.1,0.8-0.8,0.8-1.9c0-1.1-0.4-1-0.4-1.8s0.2-1.5,0.2-1.8s1.7,0.1,1.7,0.1
	l2.2,1.2c0,0,0.4-0.9,0.5-1.4s-1.3-1.9-1.4-2.2s-1.7-3.3-2-3.7s-0.6-0.8-0.6-0.8s-1.1-0.7-1.2-1.3s0.1-1.9-0.8-3.9s-0.7-2.1-0.7-2.9
	s0.9-2.8,1.2-3.8c0.3-0.9,2,0.3,2,0.3l0.9,0.8l0.1,1.3l1.1,2.9l0.6,1c0,0,2,2.3,2.2,2.5c0.1,0.2,1.3,3.1,1.7,4.1
	c0.4,1-0.3,1.5-0.3,1.5l-0.8,3.1c0,0,0,2.4,0,2.6c0,0.2,0.6,1.8,0.6,1.8l0.4,2.9c0,0-0.4,2.3,0.8,5.3c1.2,3,2.3,1.8,2.3,1.8l1.5-2.9
	l1.2-0.5c0,0,0.6-0.1,0.6-0.2c0-0.2,0.4-0.4,0.4-0.4l1.8-1c0,0-1.9-3.9-1.9-4.2s0.1-0.5,0.3-1.5c0.2-0.9,0.3-0.9,0.3-0.9l1.7-2.1
	c0,0,0.1-0.7,1.8-1.4s2,0.2,2.2,0.3s1.4,0.7,1.4,0.7l0.5,0.9c0,0-0.9,1.3-1.1,1.7c-0.2,0.4-0.1,1.2-0.3,1.4s0.1,1.5,0.1,1.8
	c0,0.2,0,0.3-0.2,0.3s-1.1,1-1.5,1.5s1.1,0.8,1.3,0.9c0.2,0.2-0.1,1.5-0.1,1.5l3,2l2.3,2.5l1.2,1.5c0,0,1.7,0,3.2-1.1
	s1.5-0.7,1.5-0.7l1.9,0.5c0,0,1.3,1.4,1.9,2.1c0.7,0.7,1.2,0.5,1.2,0.5l3.2-1.5c0,0,1.9-1.3,2-1.5s3.7-0.3,3.9-0.3s-0.5,7.5-0.5,7.5
	l-0.9,1.6l-2,2.7c0,0-1.2,4.5-1.4,4.6s-1.2,2-1.3,2.1c-0.2,0.1-2.8,1.6-2.9,1.7c-0.1,0-1.8,0-2.6-0.1c4,2.2,7.9,5.1,11.5,8.6
	c4.8-15,25.6-73.7,64.5-88.6c12.9-4.9,26.7-4.7,41,0.6c-25.5-19.5-49.6-27.1-71.7-22.4c-35.1,7.5-55.3,44.2-59.9,53.6
	c0.4,0.7,0.6,1.4,0.6,2.3c0,2.5-2,4.4-4.5,4.4c-2.4,0-4.4-2-4.4-4.4c0-1.3,0.6-2.5,1.5-3.3c-4.2-9.6-8.7-14.8-13-15h-0.3
	c-3.1,0-6.1,2.7-8.1,5.3c0.2,0.5,0.4,1.1,0.4,1.7c0,2.5-2,4.4-4.5,4.4s-4.4-2-4.4-4.4c0-2.3,1.8-4.2,4-4.4c2.6-3.5,7.1-8.1,13.1-7.8
	s11.6,5.6,16.5,15.7c7.4-13.9,27.9-46,61.9-53.2c4.6-1,9.4-1.5,14.1-1.5c23.3,0,48.2,11.8,74.1,35c5.2-15.3,12.5-23.3,21.6-24
	c0.4,0,0.8,0,1.2,0c26.5,0,57.5,62.9,65.2,79.7c2,0.4,3.6,2.2,3.6,4.3c0,2.5-2,4.5-4.5,4.5s-4.4-2-4.4-4.5c0-0.8,0.2-1.5,0.6-2.2
	c-11.2-24.1-39.9-76.7-60.5-76.7c-0.3,0-0.6,0-0.8,0c-7.1,0.5-12.9,7.9-17.5,21.9c0.7,0.8,1.2,1.8,1.2,3c0,2.5-2,4.5-4.5,4.5
	s-4.4-2-4.4-4.5c0-0.1,0-0.2,0-0.3c-18.2-11-35.5-13.6-51.3-7.5c-9.6,3.7-18,10.3-25.4,18.3c1-0.7,1.3-1,1.6-1.1s5.6-0.9,5.6-0.9
	l0.5,3.3l-1.7,0.6l-2,2.7c0,0-0.7,0.9-1.7,0.9s0.1,1.3,0.1,1.3l1.6,1.2l1.7,2.4c0,0,0.3,0.9,2.4,1.1c2,0.2,0.8,1.3,0.8,1.3l0.6,3.8
	l2.1,2.8c0,0,0.2,2.4,0.3,3c0.2,0.5,1.7,1.7,1.7,1.7s0.2,1.2,0.8,3.1c15.8-8,35.5-14.9,56.2-14.9c6.2,0,12.4,0.6,18.2,1.9
	c32.4,6.9,59.4,32.2,80.6,75.4l-0.7-5.2c3,0,3,0,3,0c4.2,0.9,4.2,1.4,4.7,2.6s0.7,2.6,0.7,2.6l2.6,2.8c0,0,0.7,1.4,1.4-3.1
	c0.7-4.5,1.9-10.1,2.1-10.8C362.8,181.2,359,170.2,359,170.2z M121.2,117.4c0.3-0.2,0.8-0.2,2-1.9s1-1.1,1.9-2.8s1.4-2.5,2.3-3.4
	c0.9-0.9,3.9-3.3,3.9-3.3s-0.9-1.2,1.3,0.1c2.1,1.3,2.4,1.6,2.4,1.6s0.1,0,0.1,1.7s-0.2,1.1,0,2s2.7,2.2,2.7,2.2l4.6-2.6l1.2-0.9
	c0,0-1.2-1.6-1.6-1.6c-0.3,0-4.9,1-1.2-1.4s7.6-3.5,7.6-3.5l2.2,0.9l-4.2,5.2c0,0-1.8,1.5,0,2.2s2.8,0.2,4.2,1.8s1.8,1.6,2,1.9
	c0.2,0.3-0.5-0.9,1.7,1.3c2.1,2.3,2.1,2.3,2.1,2.3s-0.2,1.9-0.7,2.7c-0.5,0.9,1.8,0.7-1.4,1.2s-5.2,1.2-7.3,1.2s-3.8-0.9-4.5-1.1
	c-0.7-0.2-0.5-0.8-2.4-1.3s-0.4-1.2-3.5-1s-4.1,0.2-4.5,0.5s-3.1,1.2-4.1,1.6c-1,0.5-2,0.7-3.1,0.7c-1.2,0-3-1.1-3-1.1
	s-0.6-1.6-0.5-2.6C121.3,119.1,120.9,117.5,121.2,117.4z"/>
<g>
	<path class="st1" d="M489.7,66.6c0,1.4-1,2.2-3,2.5c-2.8,0.4-4.4,0.7-4.9,0.9c-1.5,0.6-2.3,1.9-2.3,3.7v19.9c0,2.5-3.3,5.2-9.8,8
		c-7.3,3.2-15.6,4.8-24.7,4.8c-13.3,0-24.4-4-33.2-11.9c-9-8-13.5-18.4-13.5-30.9c0-12.8,4.6-23.5,13.9-32
		c9-8.2,19.8-12.3,32.4-12.3c9.7,0,17.9,1.2,24.7,3.5c5,1.7,7.6,3.4,7.8,5.1c0.4,3.2,0.6,8,0.6,14.3c0,1.4-0.9,2.1-2.6,2.2
		c-2,0.1-3.3-0.5-3.7-1.7c-2.3-6.3-5.6-10.8-9.8-13.6c-4.2-2.8-10-4.2-17.4-4.2c-10.2,0-18.1,3.1-23.8,9.3
		c-5.9,6.5-8.8,15.8-8.8,27.8c0,11.6,3.4,21,10.2,28.1c6.6,6.9,15,10.4,25.3,10.4c5.3,0,10.2-1,14.8-2.9c4.4-1.8,6.5-3.7,6.5-5.5
		V78.9c0-3.1-0.6-5.4-1.9-6.8c-1.1-1.3-3.3-2.4-6.5-3.4c-2.4-0.7-3.6-1.6-3.4-2.6c0.2-1.1,0.5-1.8,0.9-2c0.4-0.3,1.4-0.3,3.1-0.1
		c9,1.1,17.8,1.2,26.3,0.3c0.5,0,0.8-0.1,1.1-0.1C489.1,64.2,489.7,65,489.7,66.6z"/>
	<path class="st1" d="M563.4,88.6c-1.4,5.4-2.2,10.5-2.2,15.2c0,0.8-1.4,1.1-4.1,1c-6.7-0.3-15-0.5-24.8-0.5
		c-10.5,0-19.9,0.2-28.1,0.6c-1.2,0.1-2,0-2.3-0.3s-0.4-0.9-0.4-1.9c0-1.1,0.9-1.7,2.7-1.9c4.1-0.4,6.2-2.6,6.2-6.7V35.5
		c0-3-0.4-5.2-1.2-6.6c-1-1.7-2.8-3-5.6-3.9c-1.7-0.6-2.4-1.5-2.2-2.9c0.1-0.9,0.4-1.5,0.8-1.7c0.4-0.2,1.5-0.1,3.3,0.1
		c6.2,0.7,13.5,0.6,22.1-0.1c1.5-0.1,2.4-0.2,2.6-0.1c0.8,0.1,1.3,0.7,1.5,1.7c0.1,1.1-0.1,1.9-0.8,2.3c-0.3,0.2-1.1,0.4-2.6,0.8
		c-3,0.7-4.8,1.5-5.6,2.3c-0.8,0.9-1.1,2.7-1.1,5.5v56.8c0,3.6,1.2,6,3.6,7.3c2.4,1.3,6.7,1.9,13.1,1.9c6,0,10.5-0.8,13.4-2.3
		s5.3-4.5,7.1-8.7c0.7-1.7,1.7-2.3,3.1-1.7C563.2,86.5,563.7,87.3,563.4,88.6z"/>
	<path class="st1" d="M664.7,62.6c0,12.2-4.5,22.6-13.6,31.1c-8.9,8.4-19.6,12.6-32.1,12.6c-13.1,0-24-3.9-32.7-11.8
		C577.4,86.4,573,75.9,573,63c0-12.4,4.5-22.9,13.5-31.4c8.9-8.3,19.7-12.4,32.5-12.4c13,0,23.9,4,32.5,12.1
		C660.4,39.5,664.7,49.9,664.7,62.6z M651.8,64.7c0-12.3-3.4-22.1-10.1-29.2c-6.5-6.9-15-10.3-25.7-10.3c-8.8,0-16,3.2-21.7,9.7
		s-8.5,15-8.5,25.4c0,12.5,3.3,22.3,9.8,29.5c6.4,6.9,15.1,10.4,26,10.4c8.8,0,16.1-3.3,21.7-9.8C649.1,83.9,651.8,75.4,651.8,64.7z
		"/>
	<path class="st1" d="M744.8,80.9c0,8.2-3.2,14.3-9.5,18.4c-5.8,3.8-13.8,5.7-24.1,5.7c-1.1,0-3.9-0.1-8.2-0.4
		c-4.3-0.3-7.8-0.4-10.4-0.4c-4.3,0-7.7,0.3-10.2,0.8c-1.6,0.3-2.5-0.1-2.7-1.3c-0.3-1.1,0.7-2,2.7-2.9c2.4-1,3.9-1.9,4.6-2.7
		c1.1-1.1,1.6-2.9,1.6-5.3V33.2c0-4-2.3-6.5-7-7.4c-2.3-0.5-3.5-1.2-3.5-2.2c0-1.3,0.3-2,1-2.3c0.4-0.2,1.4-0.1,2.9,0.1
		c1.9,0.3,4.9,0.4,9.1,0.4c2.3,0,6.1-0.1,11.3-0.2s8.5-0.2,9.7-0.2c7.9,0,14.1,1.5,18.6,4.4c5.1,3.3,7.6,8.2,7.6,14.7
		c0,8.6-5.3,14.6-15.8,18c-1.2,0.4-1.1,0.7,0.1,0.9C737.4,61.8,744.8,69,744.8,80.9z M725.5,41.5c0-5.5-1.4-9.6-4.2-12
		c-2.8-2.5-7.3-3.7-13.5-3.7c-4.9,0-7.6,0.7-7.9,2.2c-0.1,0.3-0.1,0.8-0.1,1.3v27.6h5.6c7,0,12.1-1.2,15.3-3.6
		C723.9,50.9,725.5,47,725.5,41.5z M731.7,82.3c0-7-2.3-12.3-7-15.9c-4-3-9.3-4.6-15.8-4.6c-3.8,0-6.8,0.2-9.2,0.7v31.4
		c0,4.1,4.2,6.1,12.6,6.1C725.3,100.1,731.7,94.2,731.7,82.3z"/>
	<path class="st1" d="M846.2,103.2c-0.3,1.1-0.5,1.8-0.8,2s-0.8,0.1-1.8-0.1c-6.1-1.1-14.9-1.2-26.5-0.4c-2.2,0.2-3.4-0.3-3.6-1.3
		c-0.2-1.2,0.5-2.1,2.1-2.7c4.6-1.9,6.9-3.6,6.9-5.2c0-0.6-0.3-1.5-0.8-2.7c-3.1-7.5-5.7-13.5-7.8-18.1c-3,0.2-8.3,0.3-15.9,0.3
		c-6.3,0-11.6-0.2-16-0.5c-1.5,3.6-3.6,8.7-6.2,15.2c-0.6,1.5-0.9,2.8-0.9,4c0,2.4,1.3,4.1,3.9,5.2c4,1.7,5.9,3,5.8,3.9
		c-0.1,1.4-1.4,2-4,1.7c-8-0.8-15.3-0.6-22.1,0.8c-1.8,0.4-2.8-0.3-3-1.9c-0.2-1.1,1.2-2.3,4.1-3.6c3.1-1.3,5.8-4.3,7.9-9.1
		c8.3-17.9,13.6-29.7,16-35.3c5.8-13.5,10-24.5,12.4-33.1c0.3-1.3,2-2.5,5-3.7c0.7-0.3,1.6,1,2.7,3.7c9.1,22,19.4,45.6,30.7,70.6
		c1.8,4,4.9,6.6,9.2,7.9C845.5,101.4,846.4,102.1,846.2,103.2z M811.7,69.7c-2.8-6.4-7.2-16.2-13.1-29.5c-0.3-0.7-0.7-1.1-1.1-1.1
		c-0.4,0-0.8,0.4-1.1,1.1l-12.1,29.3c4.5,0.3,9.6,0.5,15.2,0.5C803,69.9,807,69.9,811.7,69.7z"/>
	<path class="st1" d="M919.2,88.6c-1.4,5.4-2.2,10.5-2.2,15.2c0,0.8-1.4,1.1-4.1,1c-6.7-0.3-15-0.5-24.8-0.5
		c-10.5,0-19.9,0.2-28.1,0.6c-1.2,0.1-2,0-2.3-0.3s-0.4-0.9-0.4-1.9c0-1.1,0.9-1.7,2.7-1.9c4.1-0.4,6.2-2.6,6.2-6.7V35.5
		c0-3-0.4-5.2-1.2-6.6c-1-1.7-2.8-3-5.6-3.9c-1.7-0.6-2.4-1.5-2.2-2.9c0.1-0.9,0.4-1.5,0.8-1.7c0.4-0.2,1.5-0.1,3.3,0.1
		c6.2,0.7,13.5,0.6,22.1-0.1c1.5-0.1,2.4-0.2,2.6-0.1c0.8,0.1,1.3,0.7,1.5,1.7c0.1,1.1-0.1,1.9-0.8,2.3c-0.3,0.2-1.1,0.4-2.6,0.8
		c-3,0.7-4.8,1.5-5.6,2.3c-0.8,0.9-1.1,2.7-1.1,5.5v56.8c0,3.6,1.2,6,3.6,7.3c2.4,1.3,6.7,1.9,13.1,1.9c6,0,10.5-0.8,13.4-2.3
		s5.3-4.5,7.1-8.7c0.7-1.7,1.7-2.3,3.1-1.7C919,86.5,919.5,87.3,919.2,88.6z"/>
	<path class="st1" d="M479.2,168.3c0,0.8-0.1,1.3-0.3,1.6c-0.1,0.3-0.6,0.5-1.3,0.6c-1.6,0.3-2.6-0.3-3.1-1.8
		c-1.8-5.6-4-9.4-6.5-11.2c-3.5-2.6-9.5-3.9-18.2-3.9c-3.5,0-5.4,0.4-5.8,1.1c-0.1,0.3-0.2,0.6-0.2,1.1v63.3c0,2.7,0.6,4.6,1.9,5.7
		s3.8,2.1,7.6,3c1.6,0.3,2.5,0.6,2.7,0.7c0.6,0.4,0.8,1.2,0.6,2.4c-0.1,1-0.6,1.5-1.4,1.6c-0.1,0-1,0-2.6-0.2
		c-11.2-1-20.4-1-27.7-0.1c-1.7,0.2-2.9,0.2-3.4,0c-0.4-0.2-0.7-0.7-0.8-1.5c-0.3-1.4,0.4-2.3,2.2-2.7c3.6-0.9,6.1-2.1,7.4-3.4
		c1.4-1.5,2.2-3.9,2.2-7.2v-61.5c0-1.2-0.8-1.9-2.3-2.2c-0.2,0-1.4-0.1-3.7-0.1c-8,0-14,1.4-17.8,4.2c-2.9,2.1-5.4,5.9-7.7,11.4
		c-0.7,1.7-1.7,2.3-3,1.7c-1.4-0.3-2-1.1-1.6-2.3c1.5-4.6,2.2-11,2.2-19.4c0-1,1.3-1.4,3.9-1.2c9.1,0.6,19.3,0.9,30.4,0.9
		c21,0,34.6-0.4,40.8-1.3c2.4-0.3,3.7,0,3.9,1.1C478.8,154.4,479.3,160.9,479.2,168.3z"/>
	<path class="st1" d="M565.4,231.7c0,1-0.8,1.5-2.5,1.5c-15.2,0-29.6-13-43.1-39.1c-5.2,0.3-8,0.4-8.3,0.4v26.7c0,2,0.5,3.3,1.5,4
		s3.1,1.2,6.5,1.7c2.3,0.4,3.5,1.2,3.5,2.5c0,1.1-0.2,1.7-0.6,2c-0.4,0.3-1.4,0.3-3.2,0.3c-7.7-0.3-16-0.2-25.1,0.5
		c-1.8,0.1-2.7-0.6-2.7-2.2c0-1.1,0.9-1.7,2.7-1.9c4.1-0.4,6.2-2.7,6.2-6.8v-60.8c0-4-2.3-6.5-7-7.4c-2.3-0.5-3.5-1.2-3.5-2.2
		c0-1.6,0.8-2.3,2.3-2.3c0.5,0,1,0,1.5,0.1c1.7,0.3,4.4,0.4,7.9,0.4c1.2,0,4.2-0.1,9-0.2c4.8-0.1,9.2-0.2,13.3-0.2
		c8.5,0,15.2,1.6,20.1,4.8c5.5,3.5,8.3,8.7,8.3,15.6c0,11.7-6.8,19.5-20.3,23.2c4.3,9.8,9.4,18.2,15.2,25.3
		c6,7.2,11.3,11.2,16.1,11.9C564.6,229.5,565.3,230.3,565.4,231.7z M539.9,170.3c0-6.3-1.6-10.7-4.8-13.4s-8.4-4-15.4-4
		c-3.2,0-5.3,0.4-6.4,1.3c-1.1,0.9-1.7,2.7-1.7,5.6v29.9c10.2-0.3,17.6-2.1,22.1-5.4C537.8,181.3,539.9,176.7,539.9,170.3z"/>
	<path class="st1" d="M659.9,230.3c-0.3,1.1-0.5,1.8-0.8,2s-0.8,0.1-1.8-0.1c-6.1-1.1-14.9-1.2-26.5-0.4c-2.2,0.2-3.4-0.3-3.6-1.3
		c-0.2-1.2,0.5-2.1,2.1-2.7c4.6-1.9,6.9-3.6,6.9-5.2c0-0.6-0.3-1.5-0.8-2.7c-3.1-7.5-5.7-13.5-7.8-18.1c-3,0.2-8.3,0.3-15.9,0.3
		c-6.3,0-11.6-0.2-16-0.5c-1.5,3.6-3.6,8.7-6.2,15.2c-0.6,1.5-0.9,2.8-0.9,4c0,2.4,1.3,4.1,3.9,5.2c4,1.7,5.9,3,5.8,3.9
		c-0.1,1.4-1.4,2-4,1.7c-8-0.8-15.3-0.6-22.1,0.8c-1.8,0.4-2.8-0.3-3-1.9c-0.2-1.1,1.2-2.3,4.1-3.6c3.1-1.3,5.8-4.3,7.9-9.1
		c8.3-17.9,13.6-29.7,16-35.3c5.8-13.5,10-24.5,12.4-33.1c0.3-1.3,2-2.5,5-3.7c0.7-0.3,1.6,1,2.7,3.7c9.1,22,19.4,45.6,30.7,70.6
		c1.8,4,4.9,6.6,9.2,7.9C659.3,228.5,660.1,229.3,659.9,230.3z M625.4,196.9c-2.8-6.4-7.2-16.2-13.1-29.5c-0.3-0.7-0.7-1.1-1.1-1.1
		c-0.4,0-0.8,0.4-1.1,1.1L598,196.6c4.5,0.3,9.6,0.5,15.2,0.5C616.7,197.1,620.8,197,625.4,196.9z"/>
	<path class="st1" d="M758.2,188.3c0,14.7-4.9,25.9-14.6,33.5c-9.1,7-21.8,10.5-38,10.5c-1.4,0-4.4-0.1-9.2-0.4s-8.5-0.4-11.1-0.4
		c-3.5,0-7.3,0.2-11.6,0.5c-1.8,0.2-2.7-0.6-2.7-2.2c0-1.1,0.9-1.7,2.7-1.9c4.1-0.4,6.2-2.7,6.2-6.8v-60.8c0-2.3-0.5-3.8-1.4-4.6
		c-0.8-0.6-2.4-1.2-5-1.8c-2.2-0.4-3.5-0.8-3.9-1.1c-0.5-0.3-0.7-0.9-0.8-1.9s0.3-1.7,1.3-2c0.2,0,1.1-0.1,2.8-0.3
		c9.1-0.6,21.2-0.9,36.2-0.9c14.6,0,26.4,3.5,35.2,10.5C753.6,165.7,758.2,175.6,758.2,188.3z M744.9,190
		c0-24.6-12.6-36.8-37.9-36.8h-8.9c-4.7,0.4-7,1.7-7,3.9V216c0,4.1,1.1,6.9,3.3,8.3s6.6,2.1,13.2,2.1
		C732.5,226.4,744.9,214.3,744.9,190z"/>
	<path class="st1" d="M836.3,215.7c-1.2,5-2,10.1-2.3,15.2c0,0.8-1.3,1.1-3.9,1c-6.6-0.3-15-0.5-25.3-0.5c-11.3,0-21,0.2-29.1,0.6
		c-1.8,0.1-2.7-0.7-2.7-2.2c0-1.1,0.9-1.7,2.7-1.9c2.5-0.3,4.2-0.8,4.9-1.5c0.9-0.8,1.3-2.6,1.3-5.3v-58.5c0-3.9-0.4-6.4-1.1-7.5
		c-0.7-1-2.7-2.1-6-3.1c-1.7-0.5-2.4-1.6-1.9-3.1c0.2-0.8,0.5-1.2,1-1.3c0.4-0.1,1.5,0,3.4,0.3c2.7,0.4,9.8,0.6,21.2,0.6
		s21.2-0.3,29.4-0.8c2.8-0.2,4.1,0,4.1,0.6c0,0.2,0,0.4-0.1,0.6c-0.9,4.1-1.3,8.9-1.1,14.3c0,1.3-0.6,2-1.8,2s-2-0.6-2.5-1.7
		c-1.2-3-2.2-5-3.1-6c-1.4-1.6-3.3-2.6-5.8-3c-2-0.4-9.2-0.6-21.5-0.6c-1.4,0-2.3,0.2-2.7,0.7c-0.2,0.3-0.3,0.9-0.3,1.9v26.6
		c0,1.1,0.6,1.6,1.8,1.6c3.9-0.1,9.5-0.4,16.8-0.8c1.3-0.1,2.2-0.7,2.8-1.8c0.5-0.8,1-2.6,1.5-5.3c0.4-1.8,1.4-2.5,3-2
		c1.4,0.3,2.1,0.9,1.8,2c-1.2,5.8-1.6,13.3-1.1,22.5c0,1-0.7,1.6-2.1,1.8c-1.3,0.2-2-0.5-2.2-2.1c-0.4-3.3-1-5.4-1.6-6.4
		c-0.7-1-1.9-1.7-3.7-1.9c-3.5-0.4-8.7-0.6-15.8-0.6c-0.8,0-1.1,0.3-1.1,0.9v27.7c0,3.9,2.3,6.4,6.9,7.2c1.1,0.2,5.1,0.3,11.9,0.3
		c10.5,0,17.1-3.7,19.8-11c0.6-1.7,1.7-2.3,3.1-1.7C836.1,213.7,836.6,214.5,836.3,215.7z"/>
	<path class="st1" d="M485.8,357.5c-0.3,1.1-0.5,1.8-0.8,2s-0.8,0.1-1.8-0.1c-6.1-1.1-14.9-1.2-26.5-0.4c-2.2,0.2-3.4-0.3-3.6-1.3
		c-0.2-1.2,0.5-2.1,2.1-2.7c4.6-1.9,6.9-3.6,6.9-5.2c0-0.6-0.3-1.5-0.8-2.7c-3.1-7.5-5.7-13.5-7.8-18.1c-3,0.2-8.3,0.3-15.9,0.3
		c-6.3,0-11.6-0.2-16-0.5c-1.5,3.6-3.6,8.7-6.2,15.2c-0.6,1.5-0.9,2.8-0.9,4c0,2.4,1.3,4.1,3.9,5.2c4,1.7,5.9,3,5.8,3.9
		c-0.1,1.4-1.4,2-4,1.7c-8-0.8-15.3-0.6-22.1,0.8c-1.8,0.4-2.8-0.3-3-1.9c-0.2-1.1,1.2-2.3,4.1-3.6c3.1-1.3,5.8-4.3,7.9-9.1
		c8.3-17.9,13.6-29.7,16-35.3c5.8-13.5,10-24.5,12.4-33.1c0.3-1.3,2-2.5,5-3.7c0.7-0.3,1.6,1,2.7,3.7c9.1,22,19.4,45.6,30.7,70.6
		c1.8,4,4.9,6.6,9.2,7.9C485.1,355.7,486,356.5,485.8,357.5z M451.3,324c-2.8-6.4-7.2-16.2-13.1-29.5c-0.3-0.7-0.7-1.1-1.1-1.1
		s-0.8,0.4-1.1,1.1l-12.1,29.3c4.5,0.3,9.6,0.5,15.2,0.5C442.6,324.3,446.6,324.2,451.3,324z"/>
	<path class="st1" d="M558.7,342.9c-1.4,5.4-2.2,10.5-2.2,15.2c0,0.8-1.4,1.1-4.1,1c-6.7-0.3-15-0.5-24.8-0.5
		c-10.5,0-19.9,0.2-28.1,0.6c-1.2,0.1-2,0-2.3-0.3s-0.4-0.9-0.4-1.9c0-1.1,0.9-1.7,2.7-1.9c4.1-0.4,6.2-2.6,6.2-6.7v-58.6
		c0-3-0.4-5.2-1.2-6.6c-1-1.7-2.8-3-5.6-3.9c-1.7-0.6-2.4-1.5-2.2-2.9c0.1-0.9,0.4-1.5,0.8-1.7c0.4-0.2,1.5-0.1,3.3,0.1
		c6.2,0.7,13.5,0.6,22.1-0.1c1.5-0.1,2.4-0.2,2.6-0.1c0.8,0.1,1.3,0.7,1.5,1.7c0.1,1.1-0.1,1.9-0.8,2.3c-0.3,0.2-1.1,0.4-2.6,0.8
		c-3,0.7-4.8,1.5-5.6,2.3c-0.8,0.9-1.1,2.7-1.1,5.5v56.9c0,3.6,1.2,6,3.6,7.3c2.4,1.3,6.7,1.9,13.1,1.9c6,0,10.5-0.8,13.4-2.3
		s5.3-4.5,7.1-8.7c0.7-1.7,1.7-2.3,3.1-1.7C558.6,340.9,559.1,341.7,558.7,342.9z"/>
	<path class="st1" d="M633.3,342.9c-1.2,5-2,10.1-2.3,15.2c0,0.8-1.3,1.1-3.9,1c-6.6-0.3-15-0.5-25.3-0.5c-11.3,0-21,0.2-29.1,0.6
		c-1.8,0.1-2.7-0.7-2.7-2.2c0-1.1,0.9-1.7,2.7-1.9c2.5-0.3,4.2-0.8,4.9-1.5c0.9-0.8,1.3-2.6,1.3-5.3v-58.5c0-3.9-0.4-6.4-1.1-7.5
		c-0.7-1-2.7-2.1-6-3.1c-1.7-0.5-2.4-1.6-1.9-3.1c0.2-0.8,0.5-1.2,1-1.3c0.4-0.1,1.5,0,3.4,0.3c2.7,0.4,9.8,0.6,21.2,0.6
		s21.2-0.3,29.4-0.8c2.8-0.2,4.1,0,4.1,0.6c0,0.2,0,0.4-0.1,0.6c-0.9,4.1-1.3,8.9-1.1,14.3c0,1.3-0.6,2-1.8,2s-2-0.6-2.5-1.7
		c-1.2-3-2.2-5-3.1-6c-1.4-1.6-3.3-2.6-5.8-3c-2-0.4-9.2-0.6-21.5-0.6c-1.4,0-2.3,0.2-2.7,0.7c-0.2,0.3-0.3,0.9-0.3,1.9v26.5
		c0,1.1,0.6,1.6,1.8,1.6c3.9-0.1,9.5-0.4,16.8-0.8c1.3-0.1,2.2-0.7,2.8-1.8c0.5-0.8,1-2.6,1.5-5.3c0.4-1.8,1.4-2.5,3-2
		c1.4,0.3,2.1,0.9,1.8,2c-1.2,5.8-1.6,13.3-1.1,22.5c0,1-0.7,1.6-2.1,1.8c-1.3,0.2-2-0.5-2.2-2.1c-0.4-3.3-1-5.4-1.6-6.4
		c-0.7-1-1.9-1.7-3.7-1.9c-3.5-0.4-8.7-0.6-15.8-0.6c-0.8,0-1.1,0.3-1.1,0.9v27.7c0,3.9,2.3,6.4,6.9,7.2c1.1,0.2,5.1,0.3,11.9,0.3
		c10.5,0,17.1-3.7,19.8-11c0.6-1.7,1.7-2.3,3.1-1.7C633.1,340.9,633.6,341.7,633.3,342.9z"/>
	<path class="st1" d="M721.8,358.9c0,1-0.8,1.5-2.5,1.5c-15.2,0-29.6-13-43.1-39.1c-5.2,0.3-8,0.4-8.3,0.4v26.7c0,2,0.5,3.3,1.5,4
		s3.1,1.2,6.5,1.7c2.3,0.4,3.5,1.2,3.5,2.5c0,1.1-0.2,1.7-0.6,2c-0.4,0.3-1.4,0.3-3.2,0.3c-7.7-0.3-16-0.2-25.1,0.5
		c-1.8,0.1-2.7-0.6-2.7-2.2c0-1.1,0.9-1.7,2.7-1.9c4.1-0.4,6.2-2.7,6.2-6.8v-60.8c0-4-2.3-6.5-7-7.4c-2.3-0.5-3.5-1.2-3.5-2.2
		c0-1.6,0.8-2.3,2.3-2.3c0.5,0,1,0,1.5,0.1c1.7,0.3,4.4,0.4,7.9,0.4c1.2,0,4.2-0.1,9-0.2s9.2-0.2,13.3-0.2c8.5,0,15.2,1.6,20.1,4.8
		c5.5,3.5,8.3,8.7,8.3,15.6c0,11.7-6.8,19.5-20.3,23.2c4.3,9.8,9.4,18.2,15.2,25.3c6,7.2,11.3,11.2,16.1,11.9
		C721,356.6,721.7,357.4,721.8,358.9z M696.2,297.5c0-6.3-1.6-10.7-4.8-13.4c-3.2-2.7-8.4-4-15.4-4c-3.2,0-5.3,0.4-6.4,1.3
		c-1.1,0.9-1.7,2.7-1.7,5.6v29.9c10.2-0.3,17.6-2.1,22.1-5.4C694.2,308.5,696.2,303.8,696.2,297.5z"/>
	<path class="st1" d="M809.7,295.4c0,0.8-0.1,1.3-0.3,1.6c-0.1,0.3-0.6,0.5-1.3,0.6c-1.6,0.3-2.6-0.3-3.1-1.8
		c-1.8-5.6-4-9.4-6.5-11.2c-3.5-2.6-9.5-3.9-18.2-3.9c-3.5,0-5.4,0.4-5.8,1.1c-0.1,0.3-0.2,0.6-0.2,1.1v63.3c0,2.7,0.6,4.6,1.9,5.7
		c1.3,1.1,3.8,2.1,7.6,3c1.6,0.3,2.5,0.6,2.7,0.7c0.6,0.4,0.8,1.2,0.6,2.4c-0.1,1-0.6,1.5-1.4,1.6c-0.1,0-1,0-2.6-0.2
		c-11.2-1-20.4-1-27.7-0.1c-1.7,0.2-2.9,0.2-3.4,0c-0.4-0.2-0.7-0.7-0.8-1.5c-0.3-1.4,0.4-2.3,2.2-2.7c3.6-0.9,6.1-2.1,7.4-3.4
		c1.4-1.5,2.2-3.9,2.2-7.2V283c0-1.2-0.8-1.9-2.3-2.2c-0.2,0-1.4-0.1-3.7-0.1c-8,0-14,1.4-17.8,4.2c-2.9,2.1-5.4,5.9-7.7,11.4
		c-0.7,1.7-1.7,2.3-3,1.7c-1.4-0.3-2-1.1-1.6-2.3c1.5-4.6,2.2-11,2.2-19.4c0-1,1.3-1.4,3.9-1.2c9.1,0.6,19.3,0.9,30.4,0.9
		c21,0,34.6-0.4,40.8-1.3c2.4-0.3,3.7,0,3.9,1.1C809.3,281.5,809.8,288,809.7,295.4z"/>
</g>
<g>
	<path class="st0" d="M219.4,18.3c-6.1-0.6-12.2-0.9-18.4-0.9c-4.1,0-8.2,0.1-12.2,0.4l0,0c-0.1,0-0.2,0-0.3,0
		c-7.1-0.6-20.8,2.7-21.3,2.7c-0.2,0-0.7,0.2-1.3,0.4c-18.3,3.7-35.3,10.3-50.7,19.3c-4.5,2.2-10.8,6.2-12,6.9
		c-1.6,0.9-2.8,1.3-6,2.3c-3.3,1-4,1.7-5.8,1.6c-1.8-0.1-2.8,2.4-4.2,3c-1.3,0.7-14.8,13.1-18.3,16.6c-3.6,3.5-15.3,18.3-15.2,16.9
		c0.1-1.4,11.2-14.8,11.2-14.8s20.5-18.1,25.6-22.6c5-4.5,23.4-12.8,34.7-18.6c11.2-5.8,16.9-5.1,22.8-7.8
		c5.9-2.7,23.3-6.1,42.3-7.3C203.1,15.4,213.9,17.2,219.4,18.3z"/>
	<g>
		<g>
			<g>
				<path class="st1" d="M219.4,18.3c-6.1-0.6-12.2-0.9-18.4-0.9c-4.1,0-8.2,0.1-12.2,0.4l0,0c-0.1,0-0.2,0-0.3,0
					c-7.1-0.6-20.8,2.7-21.3,2.7c-0.2,0-0.7,0.2-1.3,0.4c-18.3,3.7-35.3,10.3-50.7,19.3c-4.5,2.2-10.8,6.2-12,6.9
					c-1.6,0.9-2.8,1.3-6,2.3c-3.3,1-4,1.7-5.8,1.6c-1.8-0.1-2.8,2.4-4.2,3c-1.3,0.7-14.8,13.1-18.3,16.6
					c-3.6,3.5-15.3,18.3-15.2,16.9c0.1-1.4,11.2-14.8,11.2-14.8s20.5-18.1,25.6-22.6c5-4.5,23.4-12.8,34.7-18.6
					c11.2-5.8,16.9-5.1,22.8-7.8c5.9-2.7,23.3-6.1,42.3-7.3C203.1,15.4,213.9,17.2,219.4,18.3z"/>
			</g>
		</g>
	</g>
</g>
<path class="st1" d="M22.7,211.9c0,1.6-1.3,2.9-2.9,2.9c-1.6,0-2.9-1.3-2.9-2.9s1.3-2.9,2.9-2.9S22.7,210.3,22.7,211.9z"/>
<path class="st1" d="M81.8,94.3l0.5-0.3v1.3c0,0-1.4,2.1-2,0.1s0.9-1,0.9-1L81.8,94.3z"/>
<path class="st1" d="M104,72.1v-0.6h1.9c0,0,0.2,0.4,0,0.6c-0.2,0.2-0.6,0.6-0.9,0.5S104,72.1,104,72.1z"/>
<path class="st1" d="M158.3,88.6c-0.2-0.2,0.4-1.9,0.4-2c0-0.2,1.7,0.2,1.9,0.2s0.4,0.8,0.4,0.8l-1.1,1.3
	C159.9,88.9,158.6,88.7,158.3,88.6z"/>
<path class="st1" d="M166,56.4c0-0.3,3.2-2.2,3.2-2.6c0,0.1,0,0.3,0,0.3l-0.9,1.1c0,0-0.1,0.4-0.5,0.7c-0.4,0.2-1.4,0.5-1.4,0.5
	S166.1,56.8,166,56.4z"/>
<path class="st1" d="M163.3,78.3l0.9-1.5c0,0-0.1-2,0.1-2.3c0.2-0.2,2-3.4,2-3.4l0.5-2.1l0.2-0.5l3.3-3.8l6.3-2.9c0,0,1,1.9-0.3,2.8
	c-0.4,0.3-6.5,5.1-6.5,5.1l-0.9,3.4c0,0-2.8,3.9-2.8,4.5s3,2.4,3,2.4s0.9,1.2,0.1,1.3c-0.8,0.2-3.2,0.1-3.5,0.1
	c-0.2,0-1.6-1.5-1.6-1.5L163.3,78.3z"/>
<path class="st1" d="M184.4,48.6c-0.1-0.4,0.9-2.1,0.9-2.1l2.9,1.1l2.6,0.4l1.7,2l-0.3,0.6c0,0-4.8,0.7-5.6,0.5
	C185.8,50.9,184.5,49,184.4,48.6z"/>
<path class="st1" d="M195,48c0-0.2,0-0.3,0-0.4l2.5,0.3l0.1,2.9c0,0-1.1,0.2-1.9-0.8C194.8,49,195,48.7,195,48z"/>
<path class="st1" d="M217,34.6c1.5,0.9,2.2,1.2,2.3,1.7s-2.1,2.4-3,2.5s-2,0.1-2.2,0.1c-0.2-0.1-0.7-1.5-0.7-1.9s1.3-4.5,2.5-4.6
	c1.1-0.1,2.4-0.5,2.1,1C217.9,33.4,215.5,33.7,217,34.6z"/>
<path class="st1" d="M29.6,166.5c0.1-0.3,0.1-0.5,0.2-0.6C29.8,166,29.7,166.2,29.6,166.5z"/>
<path class="st1" d="M121.9,115.3l-0.3-0.5C121.6,114.9,122.6,115,121.9,115.3z"/>
<path class="st1" d="M353.7,150c-1.2-2.8,0.6-3,0.6-3c3.5,6.4,4.2,9.5,2.4,9.1C354.9,155.8,354.8,152.8,353.7,150z"/>
<path class="st0" d="M126.5,160.2C126.5,160.2,126.5,160.3,126.5,160.2c0.1,0.2,0.2,0.2,0.5,0.2
	C126.8,160.4,126.6,160.3,126.5,160.2z M126.5,160.2C126.5,160.2,126.5,160.3,126.5,160.2c0.1,0.2,0.2,0.2,0.5,0.2
	C126.8,160.4,126.6,160.3,126.5,160.2z M126.5,160.2C126.5,160.2,126.5,160.3,126.5,160.2c0.1,0.2,0.2,0.2,0.5,0.2
	C126.8,160.4,126.6,160.3,126.5,160.2z M126.5,160.2C126.5,160.2,126.5,160.3,126.5,160.2c0.1,0.2,0.2,0.2,0.5,0.2
	C126.8,160.4,126.6,160.3,126.5,160.2z M126.5,160.2C126.5,160.2,126.5,160.3,126.5,160.2c0.1,0.2,0.2,0.2,0.5,0.2
	C126.8,160.4,126.6,160.3,126.5,160.2z M126.5,160.2C126.5,160.2,126.5,160.3,126.5,160.2c0.1,0.2,0.2,0.2,0.5,0.2
	C126.8,160.4,126.6,160.3,126.5,160.2z M126.5,160.2C126.5,160.2,126.5,160.3,126.5,160.2c0.1,0.2,0.2,0.2,0.5,0.2
	C126.8,160.4,126.6,160.3,126.5,160.2z M126.5,160.2C126.5,160.2,126.5,160.3,126.5,160.2c0.1,0.2,0.2,0.2,0.5,0.2
	C126.8,160.4,126.6,160.3,126.5,160.2z M126.5,160.2C126.5,160.2,126.5,160.3,126.5,160.2c0.1,0.2,0.2,0.2,0.5,0.2
	C126.8,160.4,126.6,160.3,126.5,160.2z M126.5,160.2C126.5,160.2,126.5,160.3,126.5,160.2c0.1,0.2,0.2,0.2,0.5,0.2
	C126.8,160.4,126.6,160.3,126.5,160.2z"/>
<path class="st1" d="M361.9,230.1c-22.7-64.9-54.5-102.1-94.5-110.7c-33.6-7.2-66.8,7.8-88.7,21.6c-18.3,11.6-32.1,24.3-37.4,29.5
	c4.5-14.5,24.7-72.3,62.6-86.8c17.1-6.5,35.6-3.5,55.2,9.1c0,0.1,0,0.1-0.1,0.2l1.7,0.5c4.9-17.2,11.7-26.3,20.2-26.9
	c0.3,0,0.6,0,1,0c27,0,63.2,80.1,63.6,80.9l1.6-0.7c-1.5-3.4-37.9-83.9-66.2-81.9c-8.8,0.6-15.8,9.2-20.9,25.3
	c-31.6-29-61.4-40.7-88.6-34.9c-36.6,7.8-57.5,45.6-62.4,55.5c-5-11.6-10.5-17.7-16.4-18c-8.1-0.4-13.6,10.1-13.8,10.5l1.5,0.8
	c0.1-0.1,5.2-9.9,12.2-9.6c5.4,0.2,10.6,6.3,15.4,18l0.3-0.1c-0.2,0.4-0.3,0.7-0.3,0.7l1.6,0.7c0.2-0.5,21.1-48.1,62.2-56.9
	c25.8-5.5,54,5.2,83.9,31.6C237.2,78,219.7,75.7,203.4,82c-41.2,15.8-61.7,81.4-64.3,90.3c-9.8-10.5-21.5-15.8-34.8-15.6
	c-41.2,0.7-85.2,53.6-85.6,54.2l0.7,0.6c-0.4,0.4-0.7,0.7-0.7,0.7l1.3,1.2c0.2-0.2,18.5-20.1,41.7-13.7c21.7,6,52.1,36.8,74.2,149.3
	l1.7-0.3c-9.8-50-22.1-88.2-36.6-113.8c-11.6-20.5-24.7-33-38.9-36.9c-16.6-4.6-30.8,3.7-38.1,9.5c11.6-12.8,47-48.5,80.4-49
	c13.4-0.2,25,5.3,34.7,16.3l0.5,0.6l0.6-0.5c0.3-0.2,29.3-21.3,68.3-15.3c30,4.6,57.8,23.6,82.7,56.6c-19.9-14.1-39.2-18.8-57.5-14
	c-36.6,9.5-56.5,54.4-56.7,54.8l1.6,0.7c0.2-0.4,19.8-44.5,55.6-53.8c18.8-4.9,38.9,0.6,59.6,16.3l0.2-0.3l0.6,0.9l0.7-1.2
	c0.1-0.3,14.6-25.7,32.5-24.6c12,0.8,22.9,13.1,32.4,36.6l1-0.4c0.1,0,0.1,0,0.2,0s0.2,0,0.3,0C361.8,231,362.1,230.5,361.9,230.1z
	 M327.6,193.3c-16.9-1.1-30.3,19.2-33.5,24.3c-25.6-34.8-54.4-54.9-85.6-59.7c-30.2-4.6-54.6,6.7-64.6,12.5
	c14.6-13.9,68.8-60.9,123.2-49.3c36.8,7.8,66.5,40.5,88.6,97.2C347.3,202.4,337.9,194,327.6,193.3z"/>
<path class="st1" d="M181,257.5c0,1.6-1.3,2.9-2.9,2.9s-2.9-1.3-2.9-2.9s1.3-2.9,2.9-2.9S181,255.8,181,257.5z"/>
<path class="st1" d="M139.4,349.9c0,1.6-1.3,2.9-2.9,2.9c-1.6,0-2.9-1.3-2.9-2.9s1.3-2.9,2.9-2.9C138.1,347,139.4,348.3,139.4,349.9
	z"/>
<path class="st1" d="M22.5,211.9c0,1.6-1.3,2.9-2.9,2.9c-1.6,0-2.9-1.3-2.9-2.9s1.3-2.9,2.9-2.9S22.5,210.3,22.5,211.9z"/>
<path class="st1" d="M143.2,174.6c0,1.6-1.3,2.9-2.9,2.9c-1.6,0-2.9-1.3-2.9-2.9s1.3-2.9,2.9-2.9S143.2,173,143.2,174.6z"/>
<path class="st1" d="M111.4,114.4c0,1.6-1.3,2.9-2.9,2.9c-1.6,0-2.9-1.3-2.9-2.9c0-1.6,1.3-2.9,2.9-2.9
	C110.1,111.5,111.4,112.8,111.4,114.4z"/>
<path class="st1" d="M263.4,93.1c0,1.6-1.3,2.9-2.9,2.9s-2.9-1.3-2.9-2.9s1.3-2.9,2.9-2.9S263.4,91.5,263.4,93.1z"/>
<path class="st1" d="M349.4,147.1c0,1.6-1.3,2.9-2.9,2.9s-2.9-1.3-2.9-2.9c0-1.6,1.3-2.9,2.9-2.9S349.4,145.5,349.4,147.1z"/>
<path class="st1" d="M362.7,231c0,1.6-1.3,2.9-2.9,2.9s-2.9-1.3-2.9-2.9s1.3-2.9,2.9-2.9C361.4,228.1,362.7,229.4,362.7,231z"/>
<path class="st1" d="M297.2,221c0,1.6-1.3,2.9-2.9,2.9s-2.9-1.3-2.9-2.9s1.3-2.9,2.9-2.9C295.9,218,297.2,219.4,297.2,221z"/>
<path class="st1" d="M83,103.3c0,1.6-1.3,2.9-2.9,2.9s-2.9-1.3-2.9-2.9c0-1.6,1.3-2.9,2.9-2.9S83,101.7,83,103.3z"/>
<path class="st0" d="M156.7,54.1c-0.1,0-0.2,0.1-0.2,0.2l-0.1-0.1C156.5,54.1,156.6,54.1,156.7,54.1z"/>
<path class="st1" d="M195.5,382.9c-103.3,0-187.3-84-187.3-187.3S92.2,8.3,195.5,8.3s187.3,84,187.3,187.3S298.7,382.9,195.5,382.9z
	 M195.5,12.3C94.4,12.3,12.2,94.5,12.2,195.6s82.2,183.3,183.3,183.3s183.3-82.2,183.3-183.3S296.5,12.3,195.5,12.3z"/>
<path class="st1" d="M90.6,58.3c-4.9,4.3-9.6,8.9-14,13.7l-0.9,0.5c0,0-0.5-1.7-0.1-3.3s1.2-1.3,2.5-2.4c1.2-1.1,3.5-3.1,3.9-3.3
	c0.5-0.2,2.2-2.1,2.2-2.1l2.9-1.2C87.1,60.1,89.2,59.1,90.6,58.3z"/>
</svg>
